<svg id="visual" viewBox="0 0 540 960" width="540" height="960" xmlns="http://www.w3.org/2000/svg" xmlns:xlink="http://www.w3.org/1999/xlink" version="1.1"><rect x="0" y="0" width="540" height="960" fill="#001220"></rect><path d="M0 525L11.3 542.3C22.7 559.7 45.3 594.3 67.8 599C90.3 603.7 112.7 578.3 135.2 569C157.7 559.7 180.3 566.3 202.8 577.2C225.3 588 247.7 603 270.2 589C292.7 575 315.3 532 337.8 520.5C360.3 509 382.7 529 405.2 553C427.7 577 450.3 605 472.8 591.8C495.3 578.7 517.7 524.3 528.8 497.2L540 470L540 961L528.8 961C517.7 961 495.3 961 472.8 961C450.3 961 427.7 961 405.2 961C382.7 961 360.3 961 337.8 961C315.3 961 292.7 961 270.2 961C247.7 961 225.3 961 202.8 961C180.3 961 157.7 961 135.2 961C112.7 961 90.3 961 67.8 961C45.3 961 22.7 961 11.3 961L0 961Z" fill="#fcaf3c"></path><path d="M0 590L11.3 591C22.7 592 45.3 594 67.8 592C90.3 590 112.7 584 135.2 593.2C157.7 602.3 180.3 626.7 202.8 641.2C225.3 655.7 247.7 660.3 270.2 648C292.7 635.7 315.3 606.3 337.8 608.2C360.3 610 382.7 643 405.2 641.5C427.7 640 450.3 604 472.8 598.3C495.3 592.7 517.7 617.3 528.8 629.7L540 642L540 961L528.8 961C517.7 961 495.3 961 472.8 961C450.3 961 427.7 961 405.2 961C382.7 961 360.3 961 337.8 961C315.3 961 292.7 961 270.2 961C247.7 961 225.3 961 202.8 961C180.3 961 157.7 961 135.2 961C112.7 961 90.3 961 67.8 961C45.3 961 22.7 961 11.3 961L0 961Z" fill="#ff9e43"></path><path d="M0 730L11.3 736.2C22.7 742.3 45.3 754.7 67.8 750C90.3 745.3 112.7 723.7 135.2 707.7C157.7 691.7 180.3 681.3 202.8 681C225.3 680.7 247.7 690.3 270.2 699.8C292.7 709.3 315.3 718.7 337.8 722C360.3 725.3 382.7 722.7 405.2 716.8C427.7 711 450.3 702 472.8 699.5C495.3 697 517.7 701 528.8 703L540 705L540 961L528.8 961C517.7 961 495.3 961 472.8 961C450.3 961 427.7 961 405.2 961C382.7 961 360.3 961 337.8 961C315.3 961 292.7 961 270.2 961C247.7 961 225.3 961 202.8 961C180.3 961 157.7 961 135.2 961C112.7 961 90.3 961 67.8 961C45.3 961 22.7 961 11.3 961L0 961Z" fill="#ff8e4b"></path><path d="M0 819L11.3 822.3C22.7 825.7 45.3 832.3 67.8 826.2C90.3 820 112.7 801 135.2 785.3C157.7 769.7 180.3 757.3 202.8 764C225.3 770.7 247.7 796.3 270.2 799.8C292.7 803.3 315.3 784.7 337.8 782.2C360.3 779.7 382.7 793.3 405.2 801.3C427.7 809.3 450.3 811.7 472.8 802.7C495.3 793.7 517.7 773.3 528.8 763.2L540 753L540 961L528.8 961C517.7 961 495.3 961 472.8 961C450.3 961 427.7 961 405.2 961C382.7 961 360.3 961 337.8 961C315.3 961 292.7 961 270.2 961C247.7 961 225.3 961 202.8 961C180.3 961 157.7 961 135.2 961C112.7 961 90.3 961 67.8 961C45.3 961 22.7 961 11.3 961L0 961Z" fill="#ff7e55"></path><path d="M0 852L11.3 855.2C22.7 858.3 45.3 864.7 67.8 866.5C90.3 868.3 112.7 865.7 135.2 863.7C157.7 861.7 180.3 860.3 202.8 859.5C225.3 858.7 247.7 858.3 270.2 863.5C292.7 868.7 315.3 879.3 337.8 878C360.3 876.7 382.7 863.3 405.2 858.2C427.7 853 450.3 856 472.8 864.7C495.3 873.3 517.7 887.7 528.8 894.8L540 902L540 961L528.8 961C517.7 961 495.3 961 472.8 961C450.3 961 427.7 961 405.2 961C382.7 961 360.3 961 337.8 961C315.3 961 292.7 961 270.2 961C247.7 961 225.3 961 202.8 961C180.3 961 157.7 961 135.2 961C112.7 961 90.3 961 67.8 961C45.3 961 22.7 961 11.3 961L0 961Z" fill="#ff6f61"></path></svg>