<svg id="visual" viewBox="0 0 900 600" width="900" height="600" xmlns="http://www.w3.org/2000/svg" xmlns:xlink="http://www.w3.org/1999/xlink" version="1.1"><rect x="0" y="0" width="900" height="600" fill="#001220"></rect><path d="M0 328L18.8 338.8C37.7 349.7 75.3 371.3 112.8 374.2C150.3 377 187.7 361 225.2 355.2C262.7 349.3 300.3 353.7 337.8 360.5C375.3 367.3 412.7 376.7 450.2 367.8C487.7 359 525.3 332 562.8 324.8C600.3 317.7 637.7 330.3 675.2 345.5C712.7 360.7 750.3 378.3 787.8 370.2C825.3 362 862.7 328 881.3 311L900 294L900 601L881.3 601C862.7 601 825.3 601 787.8 601C750.3 601 712.7 601 675.2 601C637.7 601 600.3 601 562.8 601C525.3 601 487.7 601 450.2 601C412.7 601 375.3 601 337.8 601C300.3 601 262.7 601 225.2 601C187.7 601 150.3 601 112.8 601C75.3 601 37.7 601 18.8 601L0 601Z" fill="#fcaf3c"></path><path d="M0 368L18.8 368.7C37.7 369.3 75.3 370.7 112.8 369.5C150.3 368.3 187.7 364.7 225.2 370.3C262.7 376 300.3 391 337.8 400C375.3 409 412.7 412 450.2 404.3C487.7 396.7 525.3 378.3 562.8 379.5C600.3 380.7 637.7 401.3 675.2 400.5C712.7 399.7 750.3 377.3 787.8 373.8C825.3 370.3 862.7 385.7 881.3 393.3L900 401L900 601L881.3 601C862.7 601 825.3 601 787.8 601C750.3 601 712.7 601 675.2 601C637.7 601 600.3 601 562.8 601C525.3 601 487.7 601 450.2 601C412.7 601 375.3 601 337.8 601C300.3 601 262.7 601 225.2 601C187.7 601 150.3 601 112.8 601C75.3 601 37.7 601 18.8 601L0 601Z" fill="#ff9e43"></path><path d="M0 456L18.8 459.8C37.7 463.7 75.3 471.3 112.8 468.3C150.3 465.3 187.7 451.7 225.2 441.7C262.7 431.7 300.3 425.3 337.8 425.2C375.3 425 412.7 431 450.2 436.8C487.7 442.7 525.3 448.3 562.8 450.5C600.3 452.7 637.7 451.3 675.2 447.8C712.7 444.3 750.3 438.7 787.8 437C825.3 435.3 862.7 437.7 881.3 438.8L900 440L900 601L881.3 601C862.7 601 825.3 601 787.8 601C750.3 601 712.7 601 675.2 601C637.7 601 600.3 601 562.8 601C525.3 601 487.7 601 450.2 601C412.7 601 375.3 601 337.8 601C300.3 601 262.7 601 225.2 601C187.7 601 150.3 601 112.8 601C75.3 601 37.7 601 18.8 601L0 601Z" fill="#ff8e4b"></path><path d="M0 512L18.8 514C37.7 516 75.3 520 112.8 516.2C150.3 512.3 187.7 500.7 225.2 490.8C262.7 481 300.3 473 337.8 477.2C375.3 481.3 412.7 497.7 450.2 499.8C487.7 502 525.3 490 562.8 488.3C600.3 486.7 637.7 495.3 675.2 500.3C712.7 505.3 750.3 506.7 787.8 501C825.3 495.3 862.7 482.7 881.3 476.3L900 470L900 601L881.3 601C862.7 601 825.3 601 787.8 601C750.3 601 712.7 601 675.2 601C637.7 601 600.3 601 562.8 601C525.3 601 487.7 601 450.2 601C412.7 601 375.3 601 337.8 601C300.3 601 262.7 601 225.2 601C187.7 601 150.3 601 112.8 601C75.3 601 37.7 601 18.8 601L0 601Z" fill="#ff7e55"></path><path d="M0 532L18.8 534C37.7 536 75.3 540 112.8 541.2C150.3 542.3 187.7 540.7 225.2 539.5C262.7 538.3 300.3 537.7 337.8 537.2C375.3 536.7 412.7 536.3 450.2 539.5C487.7 542.7 525.3 549.3 562.8 548.5C600.3 547.7 637.7 539.3 675.2 536C712.7 532.7 750.3 534.3 787.8 539.7C825.3 545 862.7 554 881.3 558.5L900 563L900 601L881.3 601C862.7 601 825.3 601 787.8 601C750.3 601 712.7 601 675.2 601C637.7 601 600.3 601 562.8 601C525.3 601 487.7 601 450.2 601C412.7 601 375.3 601 337.8 601C300.3 601 262.7 601 225.2 601C187.7 601 150.3 601 112.8 601C75.3 601 37.7 601 18.8 601L0 601Z" fill="#ff6f61"></path></svg>